Disc Title:     Planes Fire And Rescue - Blu-ray™
Disc Label:     Planes.Fire.and.Rescue.2014.1080p.Blu-ray.AVC.DTS-HD.MA.7.1-XORBiTANT
Disc Size:      34,249,335,090 bytes
Protection:     AACS
Extras:         BD-Java
BDInfo:         0.7.5.5

Notes:          

BDINFO HOME:
  Cinema Squid (old)
    http://www.cinemasquid.com/blu-ray/tools/bdinfo
  UniqProject GitHub (new)
   https://github.com/UniqProject/BDInfo

INCLUDES FORUMS REPORT FOR:
  AVS Forum Blu-ray Audio and Video Specifications Thread
    http://www.avsforum.com/avs-vb/showthread.php?t=1155731


********************
PLAYLIST: 00800.MPLS
********************

<--- BEGIN FORUMS PASTE --->
[code]
                                                                                                                Total   Video                                             
Title                                                           Codec   Length  Movie Size      Disc Size       Bitrate Bitrate Main Audio Track                          Secondary Audio Track
-----                                                           ------  ------- --------------  --------------  ------- ------- ------------------                        ---------------------
00800.MPLS                                                      AVC     1:23:38 25,862,037,504  34,249,335,090  41.23   30.55   DTS-HD Master 7.1 4664Kbps (48kHz/24-bit) 
[/code]

[code]

DISC INFO:

Disc Title:     Planes Fire And Rescue - Blu-ray™
Disc Label:     Planes.Fire.and.Rescue.2014.1080p.Blu-ray.AVC.DTS-HD.MA.7.1-XORBiTANT
Disc Size:      34,249,335,090 bytes
Protection:     AACS
Extras:         BD-Java
BDInfo:         0.7.5.5

PLAYLIST REPORT:

Name:                   00800.MPLS
Length:                 1:23:38.513 (h:m:s.ms)
Size:                   25,862,037,504 bytes
Total Bitrate:          41.23 Mbps

VIDEO:

Codec                   Bitrate             Description     
-----                   -------             -----------     
MPEG-4 AVC Video        30553 kbps          1080p / 23.976 fps / 16:9 / High Profile 4.1

AUDIO:

Codec                           Language        Bitrate         Description     
-----                           --------        -------         -----------     
DTS-HD Master Audio             English         4664 kbps       7.1 / 48 kHz /  4664 kbps / 24-bit (DTS Core: 5.1 / 48 kHz /  1509 kbps / 24-bit)
DTS Audio                       Italian         1509 kbps       5.1 / 48 kHz /  1509 kbps / 24-bit
DTS-HD High-Res Audio           German          2046 kbps       7.1 / 48 kHz /  2046 kbps / 24-bit (DTS Core: 5.1 / 48 kHz /  1509 kbps / 24-bit)

SUBTITLES:

Codec                           Language        Bitrate         Description     
-----                           --------        -------         -----------     
Presentation Graphics           English         46.397 kbps                     
Presentation Graphics           Italian         40.911 kbps                     
Presentation Graphics           German          33.318 kbps                     

FILES:

Name            Time In         Length          Size            Total Bitrate   
----            -------         ------          ----            -------------   
00345.M2TS      0:00:00.000     0:00:04.212     11,986,944      22,764          
00346.M2TS      0:00:04.212     0:00:07.841     23,820,288      24,303          
00347.M2TS      0:00:12.053     0:00:41.166     219,156,480     42,590          
00348.M2TS      0:00:53.219     0:00:03.586     19,587,072      43,686          
00349.M2TS      0:00:56.806     1:14:41.393     23,893,248,000  42,653          
00350.M2TS      1:15:38.200     0:00:32.115     174,004,224     43,345          
00351.M2TS      1:16:10.315     0:07:28.197     1,520,234,496   27,135          

CHAPTERS:

Number          Time In         Length          Avg Video Rate  Max 1-Sec Rate  Max 1-Sec Time  Max 5-Sec Rate  Max 5-Sec Time  Max 10Sec Rate  Max 10Sec Time  Avg Frame Size  Max Frame Size  Max Frame Time  
------          -------         ------          --------------  --------------  --------------  --------------  --------------  --------------  --------------  --------------  --------------  --------------  
1               0:00:00.000     0:03:27.790     31,015 kbps     43,133 kbps     00:00:41.499    36,099 kbps     00:00:37.495    35,219 kbps     00:00:32.490    161,664 bytes   640,282 bytes   00:02:31.442    
2               0:03:27.790     0:04:20.802     31,627 kbps     37,561 kbps     00:05:29.996    35,069 kbps     00:05:25.950    34,579 kbps     00:05:20.945    164,888 bytes   630,026 bytes   00:07:36.789    
3               0:07:48.593     0:04:47.412     32,317 kbps     41,302 kbps     00:11:07.792    35,199 kbps     00:10:40.431    34,680 kbps     00:10:35.384    168,484 bytes   640,382 bytes   00:09:30.903    
4               0:12:36.005     0:05:02.844     31,187 kbps     41,268 kbps     00:14:26.782    35,687 kbps     00:14:09.098    34,880 kbps     00:13:59.380    162,593 bytes   640,929 bytes   00:13:16.212    
5               0:17:38.849     0:05:16.316     31,556 kbps     42,148 kbps     00:21:32.791    35,206 kbps     00:18:14.134    34,890 kbps     00:19:44.016    164,516 bytes   640,930 bytes   00:19:08.063    
6               0:22:55.165     0:04:50.123     33,014 kbps     42,452 kbps     00:26:56.740    35,637 kbps     00:26:52.777    35,060 kbps     00:26:47.731    172,121 bytes   640,328 bytes   00:27:10.337    
7               0:27:45.288     0:04:51.916     30,394 kbps     41,861 kbps     00:30:16.105    35,541 kbps     00:30:02.550    34,850 kbps     00:29:57.629    158,462 bytes   640,909 bytes   00:31:59.584    
8               0:32:37.205     0:02:47.584     32,799 kbps     52,240 kbps     00:34:47.168    35,815 kbps     00:35:07.313    34,977 kbps     00:35:02.183    171,000 bytes   640,835 bytes   00:34:00.663    
9               0:35:24.789     0:03:06.227     32,909 kbps     39,642 kbps     00:35:33.548    35,148 kbps     00:37:19.737    34,737 kbps     00:37:14.732    171,574 bytes   640,762 bytes   00:38:07.952    
10              0:38:31.017     0:03:07.270     32,088 kbps     44,545 kbps     00:39:23.527    36,284 kbps     00:39:19.523    34,735 kbps     00:41:09.925    167,294 bytes   640,924 bytes   00:38:51.579    
11              0:41:38.287     0:05:42.759     32,220 kbps     39,383 kbps     00:42:38.973    35,318 kbps     00:42:34.969    34,746 kbps     00:42:29.964    167,983 bytes   640,747 bytes   00:41:52.927    
12              0:47:21.046     0:07:39.667     32,157 kbps     40,681 kbps     00:51:46.102    35,353 kbps     00:51:42.098    34,890 kbps     00:51:37.093    167,650 bytes   639,585 bytes   00:49:33.845    
13              0:55:00.714     0:02:28.314     30,956 kbps     40,990 kbps     00:56:08.323    34,810 kbps     00:56:29.094    34,504 kbps     00:56:33.556    161,389 bytes   640,102 bytes   00:55:14.436    
14              0:57:29.028     0:03:04.851     30,954 kbps     37,202 kbps     00:58:12.780    34,811 kbps     00:58:49.859    34,528 kbps     00:58:03.771    161,380 bytes   630,687 bytes   00:59:14.759    
15              1:00:33.880     0:04:48.830     32,370 kbps     38,633 kbps     01:04:30.533    34,996 kbps     01:04:26.487    34,517 kbps     01:04:36.872    168,760 bytes   638,777 bytes   01:00:59.739    
16              1:05:22.710     0:03:44.974     32,733 kbps     39,550 kbps     01:09:04.807    34,689 kbps     01:06:35.991    34,447 kbps     01:06:43.708    170,653 bytes   484,762 bytes   01:09:05.683    
17              1:09:07.685     0:04:47.578     31,651 kbps     39,328 kbps     01:09:37.172    35,224 kbps     01:13:33.200    34,635 kbps     01:09:28.163    165,015 bytes   639,839 bytes   01:11:26.949    
18              1:13:55.264     0:09:43.249     20,377 kbps     44,623 kbps     01:23:35.760    36,197 kbps     01:23:31.714    34,599 kbps     01:23:26.709    106,244 bytes   639,587 bytes   01:16:33.463    

STREAM DIAGNOSTICS:

File            PID             Type            Codec           Language                Seconds                 Bitrate                 Bytes           Packets         
----            ---             ----            -----           --------                --------------          --------------          -------------   -----           
00345.M2TS      4113 (0x1011)   0x1B            AVC                                     4.046                   15,540                  7,858,930       42,744          
00345.M2TS      4352 (0x1100)   0x86            DTS-HD MA       eng (English)           4.046                   2,842                   1,437,388       8,437           
00345.M2TS      4353 (0x1101)   0x82            DTS             ita (Italian)           4.046                   1,572                   794,740         4,740           
00345.M2TS      4354 (0x1102)   0x85            DTS-HD HR       deu (German)            4.046                   2,131                   1,077,560       6,320           
00345.M2TS      4608 (0x1200)   0x90            PGS             eng (English)           4.046                   0                       70              7               
00345.M2TS      4609 (0x1201)   0x90            PGS             ita (Italian)           4.046                   0                       70              7               
00345.M2TS      4610 (0x1202)   0x90            PGS             deu (German)            4.046                   0                       70              7               
00346.M2TS      4113 (0x1011)   0x1B            AVC                                     7.674                   15,249                  14,628,586      79,613          
00346.M2TS      4352 (0x1100)   0x86            DTS-HD MA       eng (English)           7.674                   4,119                   3,950,936       22,667          
00346.M2TS      4353 (0x1101)   0x82            DTS             ita (Italian)           7.674                   1,544                   1,480,832       8,832           
00346.M2TS      4354 (0x1102)   0x85            DTS-HD HR       deu (German)            7.674                   2,093                   2,007,808       11,776          
00346.M2TS      4608 (0x1200)   0x90            PGS             eng (English)           7.674                   0                       70              7               
00346.M2TS      4609 (0x1201)   0x90            PGS             ita (Italian)           7.674                   100                     95,710          542             
00346.M2TS      4610 (0x1202)   0x90            PGS             deu (German)            7.674                   66                      63,121          358             
00347.M2TS      4113 (0x1011)   0x1B            AVC                                     41.041                  32,074                  164,545,501     894,821         
00347.M2TS      4352 (0x1100)   0x86            DTS-HD MA       eng (English)           41.041                  4,662                   23,915,980      136,688         
00347.M2TS      4353 (0x1101)   0x82            DTS             ita (Italian)           41.041                  1,514                   7,766,320       46,320          
00347.M2TS      4354 (0x1102)   0x85            DTS-HD HR       deu (German)            41.041                  2,053                   10,530,080      61,760          
00347.M2TS      4608 (0x1200)   0x90            PGS             eng (English)           41.041                  7                       34,276          193             
00347.M2TS      4609 (0x1201)   0x90            PGS             ita (Italian)           41.041                  4                       22,719          130             
00347.M2TS      4610 (0x1202)   0x90            PGS             deu (German)            41.041                  5                       23,979          137             
00348.M2TS      4113 (0x1011)   0x1B            AVC                                     3.420                   33,497                  14,320,378      77,879          
00348.M2TS      4352 (0x1100)   0x86            DTS-HD MA       eng (English)           3.420                   5,891                   2,518,620       14,299          
00348.M2TS      4353 (0x1101)   0x82            DTS             ita (Italian)           3.420                   1,586                   678,044         4,044           
00348.M2TS      4354 (0x1102)   0x85            DTS-HD HR       deu (German)            3.420                   2,150                   919,336         5,392           
00348.M2TS      4608 (0x1200)   0x90            PGS             eng (English)           3.420                   0                       70              7               
00348.M2TS      4609 (0x1201)   0x90            PGS             ita (Italian)           3.420                   59                      25,323          145             
00348.M2TS      4610 (0x1202)   0x90            PGS             deu (German)            3.420                   47                      20,211          117             
00349.M2TS      4113 (0x1011)   0x1B            AVC                                     4481.268                31,936                  17,889,012,900  97,285,439      
00349.M2TS      4352 (0x1100)   0x86            DTS-HD MA       eng (English)           4481.268                4,637                   2,597,197,116   14,810,434      
00349.M2TS      4353 (0x1101)   0x82            DTS             ita (Italian)           4481.268                1,509                   845,303,572     5,041,572       
00349.M2TS      4354 (0x1102)   0x85            DTS-HD HR       deu (German)            4481.268                2,046                   1,146,117,368   6,722,096       
00349.M2TS      4608 (0x1200)   0x90            PGS             eng (English)           4481.268                52                      28,852,054      167,092         
00349.M2TS      4609 (0x1201)   0x90            PGS             ita (Italian)           4481.268                45                      25,387,766      146,674         
00349.M2TS      4610 (0x1202)   0x90            PGS             deu (German)            4481.268                37                      20,693,401      120,563         
00350.M2TS      4113 (0x1011)   0x1B            AVC                                     31.990                  32,109                  128,397,317     698,257         
00350.M2TS      4352 (0x1100)   0x86            DTS-HD MA       eng (English)           31.990                  5,428                   21,706,812      122,596         
00350.M2TS      4353 (0x1101)   0x82            DTS             ita (Italian)           31.990                  1,515                   6,058,132       36,132          
00350.M2TS      4354 (0x1102)   0x85            DTS-HD HR       deu (German)            31.990                  2,054                   8,214,008       48,176          
00350.M2TS      4608 (0x1200)   0x90            PGS             eng (English)           31.990                  0                       70              7               
00350.M2TS      4609 (0x1201)   0x90            PGS             ita (Italian)           31.990                  0                       70              7               
00350.M2TS      4610 (0x1202)   0x90            PGS             deu (German)            31.990                  0                       70              7               
00351.M2TS      4113 (0x1011)   0x1B            AVC                                     448.031                 16,921                  947,650,469     5,156,497       
00351.M2TS      4352 (0x1100)   0x86            DTS-HD MA       eng (English)           448.031                 4,911                   275,016,516     1,567,203       
00351.M2TS      4353 (0x1101)   0x82            DTS             ita (Italian)           448.031                 1,510                   84,542,228      504,228         
00351.M2TS      4354 (0x1102)   0x85            DTS-HD HR       deu (German)            448.031                 2,047                   114,627,832     672,304         
00351.M2TS      4608 (0x1200)   0x90            PGS             eng (English)           448.031                 4                       218,722         1,264           
00351.M2TS      4609 (0x1201)   0x90            PGS             ita (Italian)           448.031                 2                       132,335         775             
00351.M2TS      4610 (0x1202)   0x90            PGS             deu (German)            448.031                 2                       100,076         593             

[/code]
<---- END FORUMS PASTE ---->

QUICK SUMMARY:

Disc Title: Planes Fire And Rescue - Blu-ray™
Disc Label: Planes.Fire.and.Rescue.2014.1080p.Blu-ray.AVC.DTS-HD.MA.7.1-XORBiTANT
Disc Size: 34,249,335,090 bytes
Protection: AACS
Playlist: 00800.MPLS
Size: 25,862,037,504 bytes
Length: 1:23:38.513
Total Bitrate: 41.23 Mbps
Video: MPEG-4 AVC Video / 30553 kbps / 1080p / 23.976 fps / 16:9 / High Profile 4.1
Audio: English / DTS-HD Master Audio / 7.1 / 48 kHz /  4664 kbps / 24-bit (DTS Core: 5.1 / 48 kHz /  1509 kbps / 24-bit)
Audio: Italian / DTS Audio / 5.1 / 48 kHz /  1509 kbps / 24-bit
Audio: German / DTS-HD High-Res Audio / 7.1 / 48 kHz /  2046 kbps / 24-bit (DTS Core: 5.1 / 48 kHz /  1509 kbps / 24-bit)
Subtitle: English / 46.397 kbps
Subtitle: Italian / 40.911 kbps
Subtitle: German / 33.318 kbps


********************
PLAYLIST: 00801.MPLS
********************

<--- BEGIN FORUMS PASTE --->
[code]
                                                                                                                Total   Video                                             
Title                                                           Codec   Length  Movie Size      Disc Size       Bitrate Bitrate Main Audio Track                          Secondary Audio Track
-----                                                           ------  ------- --------------  --------------  ------- ------- ------------------                        ---------------------
00801.MPLS                                                      AVC     1:23:38 25,862,037,504  34,249,335,090  41.23   30.55   DTS-HD Master 7.1 4664Kbps (48kHz/24-bit) 
[/code]

[code]

DISC INFO:

Disc Title:     Planes Fire And Rescue - Blu-ray™
Disc Label:     Planes.Fire.and.Rescue.2014.1080p.Blu-ray.AVC.DTS-HD.MA.7.1-XORBiTANT
Disc Size:      34,249,335,090 bytes
Protection:     AACS
Extras:         BD-Java
BDInfo:         0.7.5.5

PLAYLIST REPORT:

Name:                   00801.MPLS
Length:                 1:23:38.513 (h:m:s.ms)
Size:                   25,862,037,504 bytes
Total Bitrate:          41.23 Mbps

VIDEO:

Codec                   Bitrate             Description     
-----                   -------             -----------     
MPEG-4 AVC Video        30553 kbps          1080p / 23.976 fps / 16:9 / High Profile 4.1

AUDIO:

Codec                           Language        Bitrate         Description     
-----                           --------        -------         -----------     
DTS-HD Master Audio             English         4664 kbps       7.1 / 48 kHz /  4664 kbps / 24-bit (DTS Core: 5.1 / 48 kHz /  1509 kbps / 24-bit)
DTS Audio                       Italian         1509 kbps       5.1 / 48 kHz /  1509 kbps / 24-bit
DTS-HD High-Res Audio           German          2046 kbps       7.1 / 48 kHz /  2046 kbps / 24-bit (DTS Core: 5.1 / 48 kHz /  1509 kbps / 24-bit)

SUBTITLES:

Codec                           Language        Bitrate         Description     
-----                           --------        -------         -----------     
Presentation Graphics           English         46.397 kbps                     
Presentation Graphics           Italian         40.911 kbps                     
Presentation Graphics           German          33.318 kbps                     

FILES:

Name            Time In         Length          Size            Total Bitrate   
----            -------         ------          ----            -------------   
00345.M2TS      0:00:00.000     0:00:04.212     11,986,944      22,764          
00352.M2TS      0:00:04.212     0:00:07.841     23,820,288      24,303          
00347.M2TS      0:00:12.053     0:00:41.166     219,156,480     42,590          
00353.M2TS      0:00:53.219     0:00:03.586     19,587,072      43,686          
00349.M2TS      0:00:56.806     1:14:41.393     23,893,248,000  42,653          
00354.M2TS      1:15:38.200     0:00:32.115     174,004,224     43,345          
00351.M2TS      1:16:10.315     0:07:28.197     1,520,234,496   27,135          

CHAPTERS:

Number          Time In         Length          Avg Video Rate  Max 1-Sec Rate  Max 1-Sec Time  Max 5-Sec Rate  Max 5-Sec Time  Max 10Sec Rate  Max 10Sec Time  Avg Frame Size  Max Frame Size  Max Frame Time  
------          -------         ------          --------------  --------------  --------------  --------------  --------------  --------------  --------------  --------------  --------------  --------------  
1               0:00:00.000     0:03:27.790     31,015 kbps     43,133 kbps     00:00:41.499    36,099 kbps     00:00:37.495    35,219 kbps     00:00:32.490    161,663 bytes   640,282 bytes   00:02:31.442    
2               0:03:27.790     0:04:20.802     31,627 kbps     37,561 kbps     00:05:29.996    35,069 kbps     00:05:25.950    34,579 kbps     00:05:20.945    164,888 bytes   630,026 bytes   00:07:36.789    
3               0:07:48.593     0:04:47.412     32,317 kbps     41,302 kbps     00:11:07.792    35,199 kbps     00:10:40.431    34,680 kbps     00:10:35.384    168,484 bytes   640,382 bytes   00:09:30.903    
4               0:12:36.005     0:05:02.844     31,187 kbps     41,268 kbps     00:14:26.782    35,687 kbps     00:14:09.098    34,880 kbps     00:13:59.380    162,593 bytes   640,929 bytes   00:13:16.212    
5               0:17:38.849     0:05:16.316     31,556 kbps     42,148 kbps     00:21:32.791    35,206 kbps     00:18:14.134    34,890 kbps     00:19:44.016    164,516 bytes   640,930 bytes   00:19:08.063    
6               0:22:55.165     0:04:50.123     33,014 kbps     42,452 kbps     00:26:56.740    35,637 kbps     00:26:52.777    35,060 kbps     00:26:47.731    172,121 bytes   640,328 bytes   00:27:10.337    
7               0:27:45.288     0:04:51.916     30,394 kbps     41,861 kbps     00:30:16.105    35,541 kbps     00:30:02.550    34,850 kbps     00:29:57.629    158,462 bytes   640,909 bytes   00:31:59.584    
8               0:32:37.205     0:02:47.584     32,799 kbps     52,240 kbps     00:34:47.168    35,815 kbps     00:35:07.313    34,977 kbps     00:35:02.183    171,000 bytes   640,835 bytes   00:34:00.663    
9               0:35:24.789     0:03:06.227     32,909 kbps     39,642 kbps     00:35:33.548    35,148 kbps     00:37:19.737    34,737 kbps     00:37:14.732    171,574 bytes   640,762 bytes   00:38:07.952    
10              0:38:31.017     0:03:07.270     32,088 kbps     44,545 kbps     00:39:23.527    36,284 kbps     00:39:19.523    34,735 kbps     00:41:09.925    167,294 bytes   640,924 bytes   00:38:51.579    
11              0:41:38.287     0:05:42.759     32,220 kbps     39,383 kbps     00:42:38.973    35,318 kbps     00:42:34.969    34,746 kbps     00:42:29.964    167,983 bytes   640,747 bytes   00:41:52.927    
12              0:47:21.046     0:07:39.667     32,157 kbps     40,681 kbps     00:51:46.102    35,353 kbps     00:51:42.098    34,890 kbps     00:51:37.093    167,650 bytes   639,585 bytes   00:49:33.845    
13              0:55:00.714     0:02:28.314     30,956 kbps     40,990 kbps     00:56:08.323    34,810 kbps     00:56:29.094    34,504 kbps     00:56:33.556    161,389 bytes   640,102 bytes   00:55:14.436    
14              0:57:29.028     0:03:04.851     30,954 kbps     37,202 kbps     00:58:12.780    34,811 kbps     00:58:49.859    34,528 kbps     00:58:03.771    161,380 bytes   630,687 bytes   00:59:14.759    
15              1:00:33.880     0:04:48.830     32,370 kbps     38,633 kbps     01:04:30.533    34,996 kbps     01:04:26.487    34,517 kbps     01:04:36.872    168,760 bytes   638,777 bytes   01:00:59.739    
16              1:05:22.710     0:03:44.974     32,733 kbps     39,550 kbps     01:09:04.807    34,689 kbps     01:06:35.991    34,447 kbps     01:06:43.708    170,653 bytes   484,762 bytes   01:09:05.683    
17              1:09:07.685     0:04:47.578     31,651 kbps     39,328 kbps     01:09:37.172    35,224 kbps     01:13:33.200    34,635 kbps     01:09:28.163    165,015 bytes   639,839 bytes   01:11:26.949    
18              1:13:55.264     0:09:43.249     20,377 kbps     44,623 kbps     01:23:35.760    36,197 kbps     01:23:31.714    34,599 kbps     01:23:26.709    106,244 bytes   639,587 bytes   01:16:33.463    

STREAM DIAGNOSTICS:

File            PID             Type            Codec           Language                Seconds                 Bitrate                 Bytes           Packets         
----            ---             ----            -----           --------                --------------          --------------          -------------   -----           
00345.M2TS      4113 (0x1011)   0x1B            AVC                                     4.046                   15,540                  7,858,930       42,744          
00345.M2TS      4352 (0x1100)   0x86            DTS-HD MA       eng (English)           4.046                   2,842                   1,437,388       8,437           
00345.M2TS      4353 (0x1101)   0x82            DTS             ita (Italian)           4.046                   1,572                   794,740         4,740           
00345.M2TS      4354 (0x1102)   0x85            DTS-HD HR       deu (German)            4.046                   2,131                   1,077,560       6,320           
00345.M2TS      4608 (0x1200)   0x90            PGS             eng (English)           4.046                   0                       70              7               
00345.M2TS      4609 (0x1201)   0x90            PGS             ita (Italian)           4.046                   0                       70              7               
00345.M2TS      4610 (0x1202)   0x90            PGS             deu (German)            4.046                   0                       70              7               
00352.M2TS      4113 (0x1011)   0x1B            AVC                                     7.674                   15,249                  14,628,586      79,613          
00352.M2TS      4352 (0x1100)   0x86            DTS-HD MA       eng (English)           7.674                   4,119                   3,950,936       22,667          
00352.M2TS      4353 (0x1101)   0x82            DTS             ita (Italian)           7.674                   1,544                   1,480,832       8,832           
00352.M2TS      4354 (0x1102)   0x85            DTS-HD HR       deu (German)            7.674                   2,093                   2,007,808       11,776          
00352.M2TS      4608 (0x1200)   0x90            PGS             eng (English)           7.674                   0                       70              7               
00352.M2TS      4609 (0x1201)   0x90            PGS             ita (Italian)           7.674                   100                     95,710          542             
00352.M2TS      4610 (0x1202)   0x90            PGS             deu (German)            7.674                   66                      63,121          358             
00347.M2TS      4113 (0x1011)   0x1B            AVC                                     41.041                  32,074                  164,545,501     894,821         
00347.M2TS      4352 (0x1100)   0x86            DTS-HD MA       eng (English)           41.041                  4,662                   23,915,980      136,688         
00347.M2TS      4353 (0x1101)   0x82            DTS             ita (Italian)           41.041                  1,514                   7,766,320       46,320          
00347.M2TS      4354 (0x1102)   0x85            DTS-HD HR       deu (German)            41.041                  2,053                   10,530,080      61,760          
00347.M2TS      4608 (0x1200)   0x90            PGS             eng (English)           41.041                  7                       34,276          193             
00347.M2TS      4609 (0x1201)   0x90            PGS             ita (Italian)           41.041                  4                       22,719          130             
00347.M2TS      4610 (0x1202)   0x90            PGS             deu (German)            41.041                  5                       23,979          137             
00353.M2TS      4113 (0x1011)   0x1B            AVC                                     3.462                   33,088                  14,318,174      77,868          
00353.M2TS      4352 (0x1100)   0x86            DTS-HD MA       eng (English)           3.462                   5,820                   2,518,620       14,299          
00353.M2TS      4353 (0x1101)   0x82            DTS             ita (Italian)           3.462                   1,567                   678,044         4,044           
00353.M2TS      4354 (0x1102)   0x85            DTS-HD HR       deu (German)            3.462                   2,125                   919,336         5,392           
00353.M2TS      4608 (0x1200)   0x90            PGS             eng (English)           3.462                   0                       70              7               
00353.M2TS      4609 (0x1201)   0x90            PGS             ita (Italian)           3.462                   59                      25,323          145             
00353.M2TS      4610 (0x1202)   0x90            PGS             deu (German)            3.462                   47                      20,211          117             
00349.M2TS      4113 (0x1011)   0x1B            AVC                                     4481.268                31,936                  17,889,012,900  97,285,439      
00349.M2TS      4352 (0x1100)   0x86            DTS-HD MA       eng (English)           4481.268                4,637                   2,597,197,116   14,810,434      
00349.M2TS      4353 (0x1101)   0x82            DTS             ita (Italian)           4481.268                1,509                   845,303,572     5,041,572       
00349.M2TS      4354 (0x1102)   0x85            DTS-HD HR       deu (German)            4481.268                2,046                   1,146,117,368   6,722,096       
00349.M2TS      4608 (0x1200)   0x90            PGS             eng (English)           4481.268                52                      28,852,054      167,092         
00349.M2TS      4609 (0x1201)   0x90            PGS             ita (Italian)           4481.268                45                      25,387,766      146,674         
00349.M2TS      4610 (0x1202)   0x90            PGS             deu (German)            4481.268                37                      20,693,401      120,563         
00354.M2TS      4113 (0x1011)   0x1B            AVC                                     31.949                  32,151                  128,398,684     698,260         
00354.M2TS      4352 (0x1100)   0x86            DTS-HD MA       eng (English)           31.949                  5,435                   21,706,812      122,596         
00354.M2TS      4353 (0x1101)   0x82            DTS             ita (Italian)           31.949                  1,517                   6,058,132       36,132          
00354.M2TS      4354 (0x1102)   0x85            DTS-HD HR       deu (German)            31.949                  2,057                   8,214,008       48,176          
00354.M2TS      4608 (0x1200)   0x90            PGS             eng (English)           31.949                  0                       70              7               
00354.M2TS      4609 (0x1201)   0x90            PGS             ita (Italian)           31.949                  0                       70              7               
00354.M2TS      4610 (0x1202)   0x90            PGS             deu (German)            31.949                  0                       70              7               
00351.M2TS      4113 (0x1011)   0x1B            AVC                                     448.031                 16,921                  947,650,469     5,156,497       
00351.M2TS      4352 (0x1100)   0x86            DTS-HD MA       eng (English)           448.031                 4,911                   275,016,516     1,567,203       
00351.M2TS      4353 (0x1101)   0x82            DTS             ita (Italian)           448.031                 1,510                   84,542,228      504,228         
00351.M2TS      4354 (0x1102)   0x85            DTS-HD HR       deu (German)            448.031                 2,047                   114,627,832     672,304         
00351.M2TS      4608 (0x1200)   0x90            PGS             eng (English)           448.031                 4                       218,722         1,264           
00351.M2TS      4609 (0x1201)   0x90            PGS             ita (Italian)           448.031                 2                       132,335         775             
00351.M2TS      4610 (0x1202)   0x90            PGS             deu (German)            448.031                 2                       100,076         593             

[/code]
<---- END FORUMS PASTE ---->

QUICK SUMMARY:

Disc Title: Planes Fire And Rescue - Blu-ray™
Disc Label: Planes.Fire.and.Rescue.2014.1080p.Blu-ray.AVC.DTS-HD.MA.7.1-XORBiTANT
Disc Size: 34,249,335,090 bytes
Protection: AACS
Playlist: 00801.MPLS
Size: 25,862,037,504 bytes
Length: 1:23:38.513
Total Bitrate: 41.23 Mbps
Video: MPEG-4 AVC Video / 30553 kbps / 1080p / 23.976 fps / 16:9 / High Profile 4.1
Audio: English / DTS-HD Master Audio / 7.1 / 48 kHz /  4664 kbps / 24-bit (DTS Core: 5.1 / 48 kHz /  1509 kbps / 24-bit)
Audio: Italian / DTS Audio / 5.1 / 48 kHz /  1509 kbps / 24-bit
Audio: German / DTS-HD High-Res Audio / 7.1 / 48 kHz /  2046 kbps / 24-bit (DTS Core: 5.1 / 48 kHz /  1509 kbps / 24-bit)
Subtitle: English / 46.397 kbps
Subtitle: Italian / 40.911 kbps
Subtitle: German / 33.318 kbps


********************
PLAYLIST: 00802.MPLS
********************

<--- BEGIN FORUMS PASTE --->
[code]
                                                                                                                Total   Video                                             
Title                                                           Codec   Length  Movie Size      Disc Size       Bitrate Bitrate Main Audio Track                          Secondary Audio Track
-----                                                           ------  ------- --------------  --------------  ------- ------- ------------------                        ---------------------
00802.MPLS                                                      AVC     1:23:38 25,861,982,208  34,249,335,090  41.23   30.55   DTS-HD Master 7.1 4664Kbps (48kHz/24-bit) 
[/code]

[code]

DISC INFO:

Disc Title:     Planes Fire And Rescue - Blu-ray™
Disc Label:     Planes.Fire.and.Rescue.2014.1080p.Blu-ray.AVC.DTS-HD.MA.7.1-XORBiTANT
Disc Size:      34,249,335,090 bytes
Protection:     AACS
Extras:         BD-Java
BDInfo:         0.7.5.5

PLAYLIST REPORT:

Name:                   00802.MPLS
Length:                 1:23:38.513 (h:m:s.ms)
Size:                   25,861,982,208 bytes
Total Bitrate:          41.23 Mbps

VIDEO:

Codec                   Bitrate             Description     
-----                   -------             -----------     
MPEG-4 AVC Video        30553 kbps          1080p / 23.976 fps / 16:9 / High Profile 4.1

AUDIO:

Codec                           Language        Bitrate         Description     
-----                           --------        -------         -----------     
DTS-HD Master Audio             English         4664 kbps       7.1 / 48 kHz /  4664 kbps / 24-bit (DTS Core: 5.1 / 48 kHz /  1509 kbps / 24-bit)
DTS Audio                       Italian         1509 kbps       5.1 / 48 kHz /  1509 kbps / 24-bit
DTS-HD High-Res Audio           German          2046 kbps       7.1 / 48 kHz /  2046 kbps / 24-bit (DTS Core: 5.1 / 48 kHz /  1509 kbps / 24-bit)

SUBTITLES:

Codec                           Language        Bitrate         Description     
-----                           --------        -------         -----------     
Presentation Graphics           English         46.397 kbps                     
Presentation Graphics           Italian         40.911 kbps                     
Presentation Graphics           German          33.318 kbps                     

FILES:

Name            Time In         Length          Size            Total Bitrate   
----            -------         ------          ----            -------------   
00345.M2TS      0:00:00.000     0:00:04.212     11,986,944      22,764          
00355.M2TS      0:00:04.212     0:00:07.841     23,820,288      24,303          
00347.M2TS      0:00:12.053     0:00:41.166     219,156,480     42,590          
00356.M2TS      0:00:53.219     0:00:03.586     19,580,928      43,672          
00349.M2TS      0:00:56.806     1:14:41.393     23,893,248,000  42,653          
00357.M2TS      1:15:38.200     0:00:32.115     173,955,072     43,332          
00351.M2TS      1:16:10.315     0:07:28.197     1,520,234,496   27,135          

CHAPTERS:

Number          Time In         Length          Avg Video Rate  Max 1-Sec Rate  Max 1-Sec Time  Max 5-Sec Rate  Max 5-Sec Time  Max 10Sec Rate  Max 10Sec Time  Avg Frame Size  Max Frame Size  Max Frame Time  
------          -------         ------          --------------  --------------  --------------  --------------  --------------  --------------  --------------  --------------  --------------  --------------  
1               0:00:00.000     0:03:27.790     31,015 kbps     43,133 kbps     00:00:41.499    36,099 kbps     00:00:37.495    35,219 kbps     00:00:32.490    161,663 bytes   640,282 bytes   00:02:31.442    
2               0:03:27.790     0:04:20.802     31,627 kbps     37,561 kbps     00:05:29.996    35,069 kbps     00:05:25.950    34,579 kbps     00:05:20.945    164,888 bytes   630,026 bytes   00:07:36.789    
3               0:07:48.593     0:04:47.412     32,317 kbps     41,302 kbps     00:11:07.792    35,199 kbps     00:10:40.431    34,680 kbps     00:10:35.384    168,484 bytes   640,382 bytes   00:09:30.903    
4               0:12:36.005     0:05:02.844     31,187 kbps     41,268 kbps     00:14:26.782    35,687 kbps     00:14:09.098    34,880 kbps     00:13:59.380    162,593 bytes   640,929 bytes   00:13:16.212    
5               0:17:38.849     0:05:16.316     31,556 kbps     42,148 kbps     00:21:32.791    35,206 kbps     00:18:14.134    34,890 kbps     00:19:44.016    164,516 bytes   640,930 bytes   00:19:08.063    
6               0:22:55.165     0:04:50.123     33,014 kbps     42,452 kbps     00:26:56.740    35,637 kbps     00:26:52.777    35,060 kbps     00:26:47.731    172,121 bytes   640,328 bytes   00:27:10.337    
7               0:27:45.288     0:04:51.916     30,394 kbps     41,861 kbps     00:30:16.105    35,541 kbps     00:30:02.550    34,850 kbps     00:29:57.629    158,462 bytes   640,909 bytes   00:31:59.584    
8               0:32:37.205     0:02:47.584     32,799 kbps     52,240 kbps     00:34:47.168    35,815 kbps     00:35:07.313    34,977 kbps     00:35:02.183    171,000 bytes   640,835 bytes   00:34:00.663    
9               0:35:24.789     0:03:06.227     32,909 kbps     39,642 kbps     00:35:33.548    35,148 kbps     00:37:19.737    34,737 kbps     00:37:14.732    171,574 bytes   640,762 bytes   00:38:07.952    
10              0:38:31.017     0:03:07.270     32,088 kbps     44,545 kbps     00:39:23.527    36,284 kbps     00:39:19.523    34,735 kbps     00:41:09.925    167,294 bytes   640,924 bytes   00:38:51.579    
11              0:41:38.287     0:05:42.759     32,220 kbps     39,383 kbps     00:42:38.973    35,318 kbps     00:42:34.969    34,746 kbps     00:42:29.964    167,983 bytes   640,747 bytes   00:41:52.927    
12              0:47:21.046     0:07:39.667     32,157 kbps     40,681 kbps     00:51:46.102    35,353 kbps     00:51:42.098    34,890 kbps     00:51:37.093    167,650 bytes   639,585 bytes   00:49:33.845    
13              0:55:00.714     0:02:28.314     30,956 kbps     40,990 kbps     00:56:08.323    34,810 kbps     00:56:29.094    34,504 kbps     00:56:33.556    161,389 bytes   640,102 bytes   00:55:14.436    
14              0:57:29.028     0:03:04.851     30,954 kbps     37,202 kbps     00:58:12.780    34,811 kbps     00:58:49.859    34,528 kbps     00:58:03.771    161,380 bytes   630,687 bytes   00:59:14.759    
15              1:00:33.880     0:04:48.830     32,370 kbps     38,633 kbps     01:04:30.533    34,996 kbps     01:04:26.487    34,517 kbps     01:04:36.872    168,760 bytes   638,777 bytes   01:00:59.739    
16              1:05:22.710     0:03:44.974     32,733 kbps     39,550 kbps     01:09:04.807    34,689 kbps     01:06:35.991    34,447 kbps     01:06:43.708    170,653 bytes   484,762 bytes   01:09:05.683    
17              1:09:07.685     0:04:47.578     31,651 kbps     39,328 kbps     01:09:37.172    35,224 kbps     01:13:33.200    34,635 kbps     01:09:28.163    165,015 bytes   639,839 bytes   01:11:26.949    
18              1:13:55.264     0:09:43.249     20,376 kbps     44,623 kbps     01:23:35.760    36,197 kbps     01:23:31.714    34,599 kbps     01:23:26.709    106,241 bytes   639,587 bytes   01:16:33.463    

STREAM DIAGNOSTICS:

File            PID             Type            Codec           Language                Seconds                 Bitrate                 Bytes           Packets         
----            ---             ----            -----           --------                --------------          --------------          -------------   -----           
00345.M2TS      4113 (0x1011)   0x1B            AVC                                     4.046                   15,540                  7,858,930       42,744          
00345.M2TS      4352 (0x1100)   0x86            DTS-HD MA       eng (English)           4.046                   2,842                   1,437,388       8,437           
00345.M2TS      4353 (0x1101)   0x82            DTS             ita (Italian)           4.046                   1,572                   794,740         4,740           
00345.M2TS      4354 (0x1102)   0x85            DTS-HD HR       deu (German)            4.046                   2,131                   1,077,560       6,320           
00345.M2TS      4608 (0x1200)   0x90            PGS             eng (English)           4.046                   0                       70              7               
00345.M2TS      4609 (0x1201)   0x90            PGS             ita (Italian)           4.046                   0                       70              7               
00345.M2TS      4610 (0x1202)   0x90            PGS             deu (German)            4.046                   0                       70              7               
00355.M2TS      4113 (0x1011)   0x1B            AVC                                     7.674                   15,249                  14,628,586      79,609          
00355.M2TS      4352 (0x1100)   0x86            DTS-HD MA       eng (English)           7.674                   4,119                   3,950,936       22,667          
00355.M2TS      4353 (0x1101)   0x82            DTS             ita (Italian)           7.674                   1,544                   1,480,832       8,832           
00355.M2TS      4354 (0x1102)   0x85            DTS-HD HR       deu (German)            7.674                   2,093                   2,007,808       11,776          
00355.M2TS      4608 (0x1200)   0x90            PGS             eng (English)           7.674                   0                       70              7               
00355.M2TS      4609 (0x1201)   0x90            PGS             ita (Italian)           7.674                   100                     95,710          542             
00355.M2TS      4610 (0x1202)   0x90            PGS             deu (German)            7.674                   66                      63,121          358             
00347.M2TS      4113 (0x1011)   0x1B            AVC                                     41.041                  32,074                  164,545,501     894,821         
00347.M2TS      4352 (0x1100)   0x86            DTS-HD MA       eng (English)           41.041                  4,662                   23,915,980      136,688         
00347.M2TS      4353 (0x1101)   0x82            DTS             ita (Italian)           41.041                  1,514                   7,766,320       46,320          
00347.M2TS      4354 (0x1102)   0x85            DTS-HD HR       deu (German)            41.041                  2,053                   10,530,080      61,760          
00347.M2TS      4608 (0x1200)   0x90            PGS             eng (English)           41.041                  7                       34,276          193             
00347.M2TS      4609 (0x1201)   0x90            PGS             ita (Italian)           41.041                  4                       22,719          130             
00347.M2TS      4610 (0x1202)   0x90            PGS             deu (German)            41.041                  5                       23,979          137             
00356.M2TS      4113 (0x1011)   0x1B            AVC                                     3.420                   33,492                  14,318,177      77,863          
00356.M2TS      4352 (0x1100)   0x86            DTS-HD MA       eng (English)           3.420                   5,891                   2,518,620       14,299          
00356.M2TS      4353 (0x1101)   0x82            DTS             ita (Italian)           3.420                   1,586                   678,044         4,044           
00356.M2TS      4354 (0x1102)   0x85            DTS-HD HR       deu (German)            3.420                   2,150                   919,336         5,392           
00356.M2TS      4608 (0x1200)   0x90            PGS             eng (English)           3.420                   0                       70              7               
00356.M2TS      4609 (0x1201)   0x90            PGS             ita (Italian)           3.420                   59                      25,323          145             
00356.M2TS      4610 (0x1202)   0x90            PGS             deu (German)            3.420                   47                      20,211          117             
00349.M2TS      4113 (0x1011)   0x1B            AVC                                     4481.268                31,936                  17,889,012,900  97,285,439      
00349.M2TS      4352 (0x1100)   0x86            DTS-HD MA       eng (English)           4481.268                4,637                   2,597,197,116   14,810,434      
00349.M2TS      4353 (0x1101)   0x82            DTS             ita (Italian)           4481.268                1,509                   845,303,572     5,041,572       
00349.M2TS      4354 (0x1102)   0x85            DTS-HD HR       deu (German)            4481.268                2,046                   1,146,117,368   6,722,096       
00349.M2TS      4608 (0x1200)   0x90            PGS             eng (English)           4481.268                52                      28,852,054      167,092         
00349.M2TS      4609 (0x1201)   0x90            PGS             ita (Italian)           4481.268                45                      25,387,766      146,674         
00349.M2TS      4610 (0x1202)   0x90            PGS             deu (German)            4481.268                37                      20,693,401      120,563         
00357.M2TS      4113 (0x1011)   0x1B            AVC                                     31.949                  32,140                  128,353,490     698,013         
00357.M2TS      4352 (0x1100)   0x86            DTS-HD MA       eng (English)           31.949                  5,435                   21,706,812      122,596         
00357.M2TS      4353 (0x1101)   0x82            DTS             ita (Italian)           31.949                  1,517                   6,058,132       36,132          
00357.M2TS      4354 (0x1102)   0x85            DTS-HD HR       deu (German)            31.949                  2,057                   8,214,008       48,176          
00357.M2TS      4608 (0x1200)   0x90            PGS             eng (English)           31.949                  0                       70              7               
00357.M2TS      4609 (0x1201)   0x90            PGS             ita (Italian)           31.949                  0                       70              7               
00357.M2TS      4610 (0x1202)   0x90            PGS             deu (German)            31.949                  0                       70              7               
00351.M2TS      4113 (0x1011)   0x1B            AVC                                     448.031                 16,921                  947,650,469     5,156,497       
00351.M2TS      4352 (0x1100)   0x86            DTS-HD MA       eng (English)           448.031                 4,911                   275,016,516     1,567,203       
00351.M2TS      4353 (0x1101)   0x82            DTS             ita (Italian)           448.031                 1,510                   84,542,228      504,228         
00351.M2TS      4354 (0x1102)   0x85            DTS-HD HR       deu (German)            448.031                 2,047                   114,627,832     672,304         
00351.M2TS      4608 (0x1200)   0x90            PGS             eng (English)           448.031                 4                       218,722         1,264           
00351.M2TS      4609 (0x1201)   0x90            PGS             ita (Italian)           448.031                 2                       132,335         775             
00351.M2TS      4610 (0x1202)   0x90            PGS             deu (German)            448.031                 2                       100,076         593             

[/code]
<---- END FORUMS PASTE ---->

QUICK SUMMARY:

Disc Title: Planes Fire And Rescue - Blu-ray™
Disc Label: Planes.Fire.and.Rescue.2014.1080p.Blu-ray.AVC.DTS-HD.MA.7.1-XORBiTANT
Disc Size: 34,249,335,090 bytes
Protection: AACS
Playlist: 00802.MPLS
Size: 25,861,982,208 bytes
Length: 1:23:38.513
Total Bitrate: 41.23 Mbps
Video: MPEG-4 AVC Video / 30553 kbps / 1080p / 23.976 fps / 16:9 / High Profile 4.1
Audio: English / DTS-HD Master Audio / 7.1 / 48 kHz /  4664 kbps / 24-bit (DTS Core: 5.1 / 48 kHz /  1509 kbps / 24-bit)
Audio: Italian / DTS Audio / 5.1 / 48 kHz /  1509 kbps / 24-bit
Audio: German / DTS-HD High-Res Audio / 7.1 / 48 kHz /  2046 kbps / 24-bit (DTS Core: 5.1 / 48 kHz /  1509 kbps / 24-bit)
Subtitle: English / 46.397 kbps
Subtitle: Italian / 40.911 kbps
Subtitle: German / 33.318 kbps


********************
PLAYLIST: 00831.MPLS
********************

<--- BEGIN FORUMS PASTE --->
[code]
                                                                                                                Total   Video                                             
Title                                                           Codec   Length  Movie Size      Disc Size       Bitrate Bitrate Main Audio Track                          Secondary Audio Track
-----                                                           ------  ------- --------------  --------------  ------- ------- ------------------                        ---------------------
00831.MPLS                                                      AVC     1:14:41 23,893,248,000  34,249,335,090  42.65   31.93   DTS-HD Master 7.1 4636Kbps (48kHz/24-bit) 
[/code]

[code]

DISC INFO:

Disc Title:     Planes Fire And Rescue - Blu-ray™
Disc Label:     Planes.Fire.and.Rescue.2014.1080p.Blu-ray.AVC.DTS-HD.MA.7.1-XORBiTANT
Disc Size:      34,249,335,090 bytes
Protection:     AACS
Extras:         BD-Java
BDInfo:         0.7.5.5

PLAYLIST REPORT:

Name:                   00831.MPLS
Length:                 1:14:41.393 (h:m:s.ms)
Size:                   23,893,248,000 bytes
Total Bitrate:          42.65 Mbps

VIDEO:

Codec                   Bitrate             Description     
-----                   -------             -----------     
MPEG-4 AVC Video        31935 kbps          1080p / 23.976 fps / 16:9 / High Profile 4.1

AUDIO:

Codec                           Language        Bitrate         Description     
-----                           --------        -------         -----------     
DTS-HD Master Audio             English         4636 kbps       7.1 / 48 kHz /  4636 kbps / 24-bit (DTS Core: 5.1 / 48 kHz /  1509 kbps / 24-bit)
DTS Audio                       Italian         1509 kbps       5.1 / 48 kHz /  1509 kbps / 24-bit
DTS-HD High-Res Audio           German          2046 kbps       7.1 / 48 kHz /  2046 kbps / 24-bit (DTS Core: 5.1 / 48 kHz /  1509 kbps / 24-bit)

SUBTITLES:

Codec                           Language        Bitrate         Description     
-----                           --------        -------         -----------     
Presentation Graphics           English         51.506 kbps                     
Presentation Graphics           Italian         45.321 kbps                     
Presentation Graphics           German          36.941 kbps                     

FILES:

Name            Time In         Length          Size            Total Bitrate   
----            -------         ------          ----            -------------   
00349.M2TS      0:00:00.000     1:14:41.393     23,893,248,000  42,653          

CHAPTERS:

Number          Time In         Length          Avg Video Rate  Max 1-Sec Rate  Max 1-Sec Time  Max 5-Sec Rate  Max 5-Sec Time  Max 10Sec Rate  Max 10Sec Time  Avg Frame Size  Max Frame Size  Max Frame Time  
------          -------         ------          --------------  --------------  --------------  --------------  --------------  --------------  --------------  --------------  --------------  --------------  
1               0:00:00.000     1:14:41.393     31,935 kbps     52,240 kbps     00:33:50.361    36,284 kbps     00:38:22.717    35,060 kbps     00:25:50.924    166,493 bytes   640,930 bytes   00:18:11.256    

STREAM DIAGNOSTICS:

File            PID             Type            Codec           Language                Seconds                 Bitrate                 Bytes           Packets         
----            ---             ----            -----           --------                --------------          --------------          -------------   -----           
00349.M2TS      4113 (0x1011)   0x1B            AVC                                     4481.268                31,936                  17,889,012,900  97,285,439      
00349.M2TS      4352 (0x1100)   0x86            DTS-HD MA       eng (English)           4481.268                4,637                   2,597,197,116   14,810,434      
00349.M2TS      4353 (0x1101)   0x82            DTS             ita (Italian)           4481.268                1,509                   845,303,572     5,041,572       
00349.M2TS      4354 (0x1102)   0x85            DTS-HD HR       deu (German)            4481.268                2,046                   1,146,117,368   6,722,096       
00349.M2TS      4608 (0x1200)   0x90            PGS             eng (English)           4481.268                52                      28,852,054      167,092         
00349.M2TS      4609 (0x1201)   0x90            PGS             ita (Italian)           4481.268                45                      25,387,766      146,674         
00349.M2TS      4610 (0x1202)   0x90            PGS             deu (German)            4481.268                37                      20,693,401      120,563         

[/code]
<---- END FORUMS PASTE ---->

QUICK SUMMARY:

Disc Title: Planes Fire And Rescue - Blu-ray™
Disc Label: Planes.Fire.and.Rescue.2014.1080p.Blu-ray.AVC.DTS-HD.MA.7.1-XORBiTANT
Disc Size: 34,249,335,090 bytes
Protection: AACS
Playlist: 00831.MPLS
Size: 23,893,248,000 bytes
Length: 1:14:41.393
Total Bitrate: 42.65 Mbps
Video: MPEG-4 AVC Video / 31935 kbps / 1080p / 23.976 fps / 16:9 / High Profile 4.1
Audio: English / DTS-HD Master Audio / 7.1 / 48 kHz /  4636 kbps / 24-bit (DTS Core: 5.1 / 48 kHz /  1509 kbps / 24-bit)
Audio: Italian / DTS Audio / 5.1 / 48 kHz /  1509 kbps / 24-bit
Audio: German / DTS-HD High-Res Audio / 7.1 / 48 kHz /  2046 kbps / 24-bit (DTS Core: 5.1 / 48 kHz /  1509 kbps / 24-bit)
Subtitle: English / 51.506 kbps
Subtitle: Italian / 45.321 kbps
Subtitle: German / 36.941 kbps

